<?xml version="1.0" encoding="utf-8"?>
<!-- Generator: Adobe Illustrator 15.0.1, SVG Export Plug-In . SVG Version: 6.00 Build 0)  -->
<!DOCTYPE svg PUBLIC "-//W3C//DTD SVG 1.1//EN" "http://www.w3.org/Graphics/SVG/1.1/DTD/svg11.dtd">
<svg version="1.1" id="Layer_1" xmlns="http://www.w3.org/2000/svg" xmlns:xlink="http://www.w3.org/1999/xlink" x="0px" y="0px"
	 width="30.33px" height="30.548px" viewBox="0 0 30.33 30.548" enable-background="new 0 0 30.33 30.548" xml:space="preserve">
<path fill-rule="evenodd" clip-rule="evenodd" d="M0,0c10.11,0,20.22,0,30.33,0c0,10.183,0,20.365,0,30.548
	c-10.183,0-20.365,0-30.548,0c0-9.965,0-19.93,0-29.894C-0.237,0.345-0.254,0.036,0,0z M17.238,13.091c-0.945,0-1.891,0-2.836,0
	c0,1.31,0,2.619,0,3.928c0.93,0.089,2.248-0.211,2.836,0.219c0,3.709,0,7.419,0,11.128c1.455,0,2.909,0,4.363,0
	c0.174-3.818-0.663-7.761,0-11.347c1.383,0,2.764,0,4.146,0c0-1.309,0-2.618,0-3.928c-1.455,0-2.909,0-4.364,0
	c0.106-1.711-0.411-4.046,0.873-4.582c0.783-0.451,2.359-0.112,3.491-0.218c0-1.236,0-2.472,0-3.709
	C19.173,3.68,16.401,6.581,17.238,13.091z"/>
</svg>
