<?xml version="1.0" encoding="utf-8"?>
<!-- Generator: Adobe Illustrator 15.0.1, SVG Export Plug-In . SVG Version: 6.00 Build 0)  -->
<!DOCTYPE svg PUBLIC "-//W3C//DTD SVG 1.1//EN" "http://www.w3.org/Graphics/SVG/1.1/DTD/svg11.dtd">
<svg version="1.1" id="Layer_1" xmlns="http://www.w3.org/2000/svg" xmlns:xlink="http://www.w3.org/1999/xlink" x="0px" y="0px"
	 width="31.99px" height="31.988px" viewBox="0 0 31.99 31.988" enable-background="new 0 0 31.99 31.988" xml:space="preserve">
<path d="M11.946,0.523C3.402,2.76-1.711,11.498,0.525,20.043c2.236,8.543,10.975,13.656,19.519,11.42
	c8.544-2.235,13.657-10.975,11.422-19.519C29.229,3.401,20.49-1.712,11.946,0.523z M24.799,6.684l-8.252,11.31L3.726,12.199
	L24.799,6.684z M25.461,7.722l2.939,11.229l-8.486-3.778L25.461,7.722z M4.071,13.32l8.487,3.777L7.01,24.55L4.071,13.32z
	 M7.325,25.951l6.245-8.312l3.257,1.422l2.146-2.818l9.459,4.184L7.325,25.951z"/>
</svg>
