<?xml version="1.0" encoding="utf-8"?>
<!-- Generator: Adobe Illustrator 15.0.1, SVG Export Plug-In . SVG Version: 6.00 Build 0)  -->
<!DOCTYPE svg PUBLIC "-//W3C//DTD SVG 1.1//EN" "http://www.w3.org/Graphics/SVG/1.1/DTD/svg11.dtd">
<svg version="1.1" id="Layer_1" xmlns="http://www.w3.org/2000/svg" xmlns:xlink="http://www.w3.org/1999/xlink" x="0px" y="0px"
	 width="36.306px" height="29.506px" viewBox="0 0 36.306 29.506" enable-background="new 0 0 36.306 29.506" xml:space="preserve">
<path d="M36.306,3.492c-1.336,0.594-2.771,0.993-4.278,1.174c1.537-0.922,2.719-2.382,3.275-4.121
	c-1.439,0.854-3.033,1.474-4.73,1.808C29.213,0.905,27.278,0,25.136,0c-4.114,0-7.449,3.336-7.449,7.448
	c0,0.585,0.066,1.152,0.193,1.698C11.69,8.836,6.201,5.871,2.528,1.365C1.886,2.464,1.519,3.743,1.519,5.107
	c0,2.585,1.315,4.865,3.313,6.201c-1.221-0.039-2.369-0.373-3.374-0.932c0,0.031,0,0.062,0,0.092c0,3.61,2.567,6.621,5.975,7.305
	c-0.625,0.171-1.283,0.262-1.962,0.262c-0.48,0-0.947-0.047-1.401-0.135c0.948,2.961,3.698,5.114,6.958,5.174
	c-2.549,1.998-5.761,3.188-9.251,3.188c-0.602,0-1.194-0.036-1.777-0.103c3.296,2.112,7.211,3.346,11.418,3.346
	c13.701,0,21.193-11.352,21.193-21.193c0-0.322-0.008-0.644-0.021-0.963C34.044,6.299,35.307,4.987,36.306,3.492z"/>
</svg>
